<?xml version="1.0" encoding="UTF-8" standalone="no"?>
<svg width="299px" height="320px" viewBox="0 0 299 320" version="1.1" xmlns="http://www.w3.org/2000/svg" xmlns:xlink="http://www.w3.org/1999/xlink">
    <!-- Generator: Sketch 3.8.3 (29802) - http://www.bohemiancoding.com/sketch -->
    <title>Slice 1</title>
    <desc>Created with Sketch.</desc>
    <defs></defs>
    <g id="Page-1" stroke="none" stroke-width="1" fill="none" fill-rule="evenodd">
        <g id="logo">
            <g id="Page-1">
                <circle id="Oval-1" fill="#FFFFFF" cx="149.5" cy="149.5" r="149.5"></circle>
                <text id="HOP" font-family="Avenir-Heavy, Avenir" font-size="72" font-weight="600" letter-spacing="3">
                    <tspan x="69.34" y="159" fill="#F7CF4C">HOP</tspan>
                    <tspan x="235.66" y="159" fill="#000000"> </tspan>
                </text>
                <g id="footprints-151189" transform="translate(97.290061, 228.958889) rotate(-29.000000) translate(-97.290061, -228.958889) translate(51.290061, 150.458889)" fill="#F7CF4C">
                    <g id="Shoe-Print">
                        <g id="Group" transform="translate(0.526373, 0.031280)">
                            <path d="M34.8646468,73.0878082 C28.22491,75.4409987 22.3620708,76.9415005 13.939955,79.6198989 C17.2421316,121.714033 55.9008039,104.93172 34.8646468,73.0878082 L34.8646468,73.0878082 L34.8646468,73.0878082 Z M32.949455,65.44995 C33.0625424,59.6011226 32.7612121,53.9637318 35.2379792,48.4034818 C38.0514845,42.4412403 38.5011042,37.211585 36.9446216,28.5530776 C34.1136303,12.8045721 28.1291029,2.98612632 20.0469937,0.830160789 C2.80759184,-1.73899974 0.672229474,15.5436542 0.254355789,28.1853197 C-0.697281316,35.2602226 5.16104263,65.5371987 12.2454905,70.6657447 C19.2074332,68.8478368 26.0427487,67.0642111 32.949455,65.44995 L32.949455,65.44995 L32.949455,65.44995 Z" id="Shape"></path>
                            <path d="M56.0945789,123.80374 C62.7343158,126.156931 68.597155,127.657439 77.0192708,130.335831 C73.7171003,172.429965 35.0584279,155.647658 56.0945789,123.80374 L56.0945789,123.80374 L56.0945789,123.80374 Z M58.0097768,116.165882 C57.8966895,110.317055 58.1980197,104.679664 55.7212466,99.1194139 C52.9077413,93.1571724 52.4581216,87.9275171 54.0146042,79.2690097 C56.8455955,63.5205042 62.8301229,53.7020524 70.9122321,51.5460929 C88.1516339,48.9769324 90.2869963,66.2595863 90.70487,78.9012579 C91.6565071,85.9761608 85.7981832,116.253137 78.7137353,121.381683 C71.7517987,119.563781 64.9164771,117.780149 58.0097768,116.165888 L58.0097768,116.165882 L58.0097768,116.165882 Z" id="Shape"></path>
                        </g>
                    </g>
                </g>
            </g>
        </g>
    </g>
</svg>