<?xml version="1.0" encoding="UTF-8" standalone="no"?>
<svg width="600px" height="225px" viewBox="0 0 600 225" version="1.1" xmlns="http://www.w3.org/2000/svg" xmlns:xlink="http://www.w3.org/1999/xlink">
    <!-- Generator: Sketch 3.8.3 (29802) - http://www.bohemiancoding.com/sketch -->
    <title>logo</title>
    <desc>Created with Sketch.</desc>
    <defs></defs>
    <g id="Page-1" stroke="none" stroke-width="1" fill="none" fill-rule="evenodd">
        <g id="logo">
            <g id="Page-1">
                <rect id="Rectangle-1" fill="#F7CF4C" x="0" y="0" width="600" height="225"></rect>
                <text id="HOP" font-family="Avenir-Heavy, Avenir" font-size="144" font-weight="600" letter-spacing="3" fill="#FFFFFF">
                    <tspan x="77" y="160">HO</tspan>
                    <tspan x="309.656" y="160">P</tspan>
                </text>
                <g id="footprints-151189" transform="translate(490.238177, 109.616349) rotate(-25.000000) translate(-490.238177, -109.616349) translate(445.238177, 32.822871)" fill="#FFFFFF">
                    <g id="Shoe-Print">
                        <g id="Group" transform="translate(0.514930, 0.030600)">
                            <path d="M34.1067197,71.4989428 C27.611325,73.800977 21.8759388,75.2688592 13.6369125,77.8890315 C16.8673027,119.068076 54.685569,102.650596 34.1067197,71.4989428 L34.1067197,71.4989428 L34.1067197,71.4989428 Z M32.2331625,64.027125 C32.3437915,58.305446 32.0490118,52.7906072 34.4719362,47.3512322 C37.2242783,41.5186046 37.6641237,36.4026375 36.1414777,27.9323585 C33.3720296,12.5262118 27.5176007,2.92121053 19.6111895,0.812113815 C2.74655723,-1.7011954 0.65761579,15.2057487 0.248826315,27.5725954 C-0.682123027,34.493696 5.04884605,64.112477 11.9792842,69.1295329 C18.7898803,67.3511447 25.476602,65.6062935 32.2331625,64.027125 L32.2331625,64.027125 L32.2331625,64.027125 Z" id="Shape"></path>
                            <path d="M54.8751315,121.112354 C61.3705263,123.414389 67.1059125,124.882277 75.3449388,127.502443 C72.1145546,168.681488 34.2962882,152.264013 54.8751315,121.112354 L54.8751315,121.112354 L54.8751315,121.112354 Z M56.7486947,113.640537 C56.6380658,107.918858 56.9328454,102.404019 54.5099152,96.964644 C51.757573,91.1320165 51.3177277,86.0160493 52.8403737,77.5457704 C55.6098217,62.1396237 61.4642507,52.5346165 69.3706618,50.4255257 C86.235294,47.9122165 88.3242355,64.8191605 88.733025,77.1860132 C89.6639743,84.1071138 83.9330053,113.725895 77.0025671,118.742951 C70.191977,116.964568 63.5052493,115.219711 56.7486947,113.640543 L56.7486947,113.640537 L56.7486947,113.640537 Z" id="Shape"></path>
                        </g>
                    </g>
                </g>
            </g>
        </g>
    </g>
</svg>